<svg version="1.1" id="Слой_1" xmlns="http://www.w3.org/2000/svg" xmlns:xlink="http://www.w3.org/1999/xlink" x="0px" y="0px"
	 width="680.314px" height="680.314px" viewBox="0 0 680.314 680.314" enable-background="new 0 0 680.314 680.314"
	 xml:space="preserve">
<g>
	<path fill-rule="evenodd" clip-rule="evenodd" fill="#434951" d="M552.125,311.599l-0.17,240.945H127.042l0.142-425.197h425.083
		L552.125,311.599z M594.645,311.599l0.113-184.224c0.029-23.414-19.077-42.548-42.52-42.548H127.184
		c-23.386,0-42.52,19.134-42.52,42.52l-0.142,425.197c0,23.385,19.134,42.52,42.52,42.52h424.914c23.386,0,42.52-19.135,42.52-42.52
		L594.645,311.599z"/>
	<path fill-rule="evenodd" clip-rule="evenodd" fill="#434951" d="M169.562,524.196h85.039v-70.865h-85.039V524.196z
		 M424.68,297.425h85.039v-70.866H424.68V297.425z M297.121,297.425h85.04v-70.866h-85.04V297.425z M169.562,297.425h85.039v-70.866
		h-85.039V297.425z M424.68,410.812h85.039v-70.867H424.68V410.812z M297.121,410.812h85.04v-70.867h-85.04V410.812z
		 M169.562,410.812h85.039v-70.867h-85.039V410.812z M424.68,524.196h85.039v-70.865H424.68V524.196z M297.121,524.196h85.04
		v-70.865h-85.04V524.196z"/>
</g>
</svg>