<svg version="1.1" id="Слой_1" xmlns="http://www.w3.org/2000/svg" xmlns:xlink="http://www.w3.org/1999/xlink" x="0px" y="0px"
	 width="680.314px" height="680.314px" viewBox="0 0 680.314 680.314" enable-background="new 0 0 680.314 680.314"
	 xml:space="preserve">
    <g>
        <path fill="#E48121" d="M460.112,524.196V283.252h42.52v240.944H460.112z M587.729,233.646v347.187
            c0,9.779-3.969,18.652-10.403,25.086c-6.435,6.408-15.307,10.404-25.087,10.404H127.042c-9.779,0-18.652-3.996-25.086-10.404
            c-6.406-6.434-10.403-15.307-10.403-25.086V233.646h-7.03h-21.26v-21.26V130.72c0-18.482,7.54-35.291,19.701-47.452
            s28.97-19.701,47.452-19.701h418.45c18.482,0,35.291,7.541,47.452,19.701c12.16,12.161,19.701,28.97,19.701,47.452v81.667v21.26
            h-21.261H587.729z M134.072,233.646v340.158h411.137V233.646H134.072z M548.865,106.087h-418.45
            c-6.747,0-12.898,2.778-17.376,7.256c-4.479,4.479-7.257,10.63-7.257,17.376v60.406h467.716V130.72
            c0-6.747-2.777-12.897-7.256-17.376C561.763,108.865,555.611,106.087,548.865,106.087L548.865,106.087z M318.38,523.603V283.847
            h42.52v239.755H318.38z M176.648,523.603V283.847h42.52v239.755H176.648z"/>
    </g>
</svg>