<svg version="1.1" id="Слой_1" xmlns="http://www.w3.org/2000/svg" xmlns:xlink="http://www.w3.org/1999/xlink" x="0px" y="0px"
	 width="680.314px" height="680.314px" viewBox="0 0 680.314 680.314" enable-background="new 0 0 680.314 680.314"
	 xml:space="preserve">
<g>
	<path fill="#434950" d="M523.893,83.126l13.322-13.323l15.023-15.023l15.023,15.023l42.521,42.52l15.052,15.024l-15.052,15.023
		l-13.295,13.323l14.173,14.173l-15.052,15.024L212.932,567.567l-3.118,3.146l-4.507,1.672L91.92,614.905l-43.597,16.355
		l16.356-43.596l42.52-113.387l1.701-4.506l3.118-3.119L494.695,83.977l15.023-15.023L523.893,83.126z M120.72,558.864l38.863-14.57
		l-24.293-24.293L120.72,558.864z M197.908,522.497l352.63-352.631l-40.819-40.791L157.117,481.677L197.908,522.497z"/>
</g>
</svg>