<svg version="1.1" id="Слой_1" xmlns="http://www.w3.org/2000/svg" xmlns:xlink="http://www.w3.org/1999/xlink" x="0px" y="0px"
	 width="680.314px" height="680.314px" viewBox="0 0 680.314 680.314" enable-background="new 0 0 680.314 680.314"
	 xml:space="preserve">
    <g>
        <path fill="#434950" d="M182.317,350.575c-8.306-23.5-9.723-48.955-4.28-73.191c5.272-23.527,17.008-45.808,35.121-63.921
            l111.458-111.487c25.625-25.597,59.357-38.41,93.061-38.41s67.437,12.813,93.062,38.41c25.597,25.625,38.409,59.357,38.409,93.062
            c0,33.732-12.813,67.464-38.409,93.062L399.281,399.558c-23.188,23.188-53.064,35.857-83.594,38.041
            c-30.87,2.211-62.391-6.35-88.299-25.711l25.427-34.043c17.546,13.096,38.919,18.906,59.896,17.404
            c20.608-1.475,40.791-10.063,56.494-25.738l111.459-111.487c17.319-17.292,25.965-40.139,25.965-62.986
            s-8.646-45.695-25.965-62.986c-17.292-17.32-40.139-25.965-62.986-25.965c-22.847,0-45.694,8.646-62.985,25.965L243.206,243.51
            c-12.331,12.331-20.268,27.383-23.811,43.172c-3.685,16.441-2.721,33.761,2.948,49.776L182.317,350.575z"/>
        <path fill="#434950" d="M497.104,329.712c8.221,23.5,9.581,48.869,4.139,72.965c-5.329,23.471-17.036,45.693-35.093,63.779
            L354.692,577.913c-25.625,25.598-59.358,38.41-93.062,38.41c-33.732,0-67.465-12.813-93.062-38.41
            c-25.625-25.625-38.41-59.357-38.41-93.061c0-33.705,12.784-67.438,38.41-93.063l111.458-111.458
            c23.216-23.216,53.122-35.887,83.679-38.069c30.869-2.154,62.419,6.491,88.356,25.965l-25.398,33.874
            c-17.49-13.125-38.92-18.964-59.953-17.461c-20.664,1.446-40.904,10.035-56.608,25.739L198.617,421.866
            c-17.292,17.291-25.937,40.139-25.937,62.986s8.646,45.693,25.937,62.986c17.319,17.318,40.167,25.965,63.014,25.965
            c22.847,0,45.694-8.646,62.986-25.965L436.075,436.38c12.302-12.303,20.239-27.27,23.811-43.002
            c3.714-16.441,2.778-33.732-2.807-49.691L497.104,329.712z"/>
    </g>
</svg>