<svg version="1.1" id="Слой_1" xmlns="http://www.w3.org/2000/svg" xmlns:xlink="http://www.w3.org/1999/xlink" x="0px" y="0px"
	 width="680.314px" height="680.314px" viewBox="0 0 680.314 680.314" enable-background="new 0 0 680.314 680.314"
	 xml:space="preserve">
    <g>
        <polygon fill-rule="evenodd" clip-rule="evenodd" fill="#434950" points="368.128,361.204 583.59,361.204 543.225,401.599 
            573.697,432.071 665.795,339.945 573.3,247.451 542.827,277.923 583.59,318.685 368.128,318.685 	"/>
        <path fill-rule="evenodd" clip-rule="evenodd" fill="#434950" d="M184.103,84.855h311.896c23.414,0,42.548,19.134,42.52,42.548
            l-0.113,70.838h-42.52l0.142-70.866H184.103l-0.142,411.024h311.754l0.17-70.895h42.52l-0.17,70.895
            c-0.028,23.385-19.134,42.52-42.52,42.52H183.961c-23.386,0-42.52-19.135-42.52-42.52l0.142-411.024
            C141.583,103.989,160.717,84.855,184.103,84.855L184.103,84.855z"/>
    </g>
</svg>