<svg version="1.1" id="Слой_1" xmlns="http://www.w3.org/2000/svg" xmlns:xlink="http://www.w3.org/1999/xlink" x="0px" y="0px"
	 width="680.314px" height="680.314px" viewBox="0 0 680.314 680.314" enable-background="new 0 0 680.314 680.314"
	 xml:space="preserve">
    <g>
        <path fill="#434950" d="M105.782,573.804h156.558v-113.84H105.782V573.804z M304.859,495.624h211.947v-134.42H429.3
            c-3.997,16.895-12.643,32.004-24.52,43.881c-16.668,16.668-39.713,26.986-65.14,26.986c-25.427,0-48.473-10.318-65.14-26.986
            c-11.877-11.877-20.523-26.986-24.52-43.881H141.215h-21.26v-21.259V163.006v-21.26h21.26h233.234V99
            c0-9.751,3.969-18.624,10.375-25.03s15.279-10.403,25.059-10.403h170.702c9.779,0,18.624,3.997,25.059,10.403
            c6.406,6.406,10.375,15.279,10.375,25.03v128.013c0,9.78-3.969,18.624-10.375,25.058c-6.435,6.407-15.279,10.375-25.059,10.375
            H409.883c-9.779,0-18.652-3.968-25.059-10.375c-6.406-6.435-10.375-15.278-10.375-25.058v-42.747H162.475v134.419h87.506
            c3.997-16.895,12.643-32.003,24.52-43.88c16.667-16.668,39.713-26.986,65.14-26.986c25.427,0,48.472,10.318,65.14,26.986
            c11.877,11.877,20.522,26.985,24.52,43.88h108.766h21.26v21.26v176.939v21.26h-21.26H304.859v42.746
            c0,9.779-3.997,18.623-10.403,25.059c-6.406,6.406-15.279,10.375-25.03,10.375H98.695c-9.751,0-18.624-3.969-25.03-10.375
            c-6.407-6.436-10.403-15.279-10.403-25.059V452.878c0-9.779,3.997-18.625,10.403-25.031c6.406-6.434,15.278-10.402,25.03-10.402
            h170.73c9.751,0,18.624,3.969,25.03,10.402c6.406,6.406,10.403,15.252,10.403,25.031V495.624z M374.733,304.88
            c-8.986-8.986-21.402-14.542-35.093-14.542c-13.691,0-26.107,5.556-35.064,14.542c-8.986,8.958-14.542,21.374-14.542,35.064
            s5.556,26.107,14.542,35.093c8.958,8.957,21.373,14.514,35.064,14.514c13.691,0,26.107-5.557,35.093-14.514
            c8.957-8.986,14.513-21.402,14.513-35.093S383.69,313.838,374.733,304.88L374.733,304.88z M416.97,219.926h156.528V106.087H416.97
            V219.926z"/>
    </g>
</svg>