<svg version="1.1" id="Слой_1" xmlns="http://www.w3.org/2000/svg" xmlns:xlink="http://www.w3.org/1999/xlink" x="0px" y="0px"
	 width="680.314px" height="680.314px" viewBox="0 0 680.314 680.314" enable-background="new 0 0 680.314 680.314"
	 xml:space="preserve">
    <g>
        <path fill-rule="evenodd" clip-rule="evenodd" fill="#5C5A62" d="M209.7,539.335c-9.383,0-17.604-3.516-24.633-10.545
            c-7.058-7.031-10.573-15.252-10.573-24.635V150.534H209.7v353.621h277.965v35.18H209.7z M315.404,398.622h187.654v-35.207H315.404
            V398.622z M315.404,328.238h187.654V293.06H315.404V328.238z M280.056,468.978c-9.382,0-17.575-3.543-24.633-10.572
            c-7.03-7.029-10.545-15.25-10.545-24.633V105.378c0-9.382,3.515-17.603,10.545-24.633c7.058-7.058,15.25-10.573,24.633-10.573
            h258.038c9.383,0,17.604,3.515,24.633,10.573c7.059,7.03,10.573,15.25,10.573,24.633v328.395c0,9.383-3.515,17.604-10.573,24.633
            c-7.029,7.029-15.25,10.572-24.633,10.572H280.056z M280.056,433.772h258.038V105.378H280.056V433.772z M280.056,433.772V105.378
            V433.772z"/>
        <path fill-rule="evenodd" clip-rule="evenodd" fill="#5C5A62" d="M139.316,609.718c-9.383,0-17.604-3.514-24.633-10.545
            c-7.03-7.059-10.545-15.25-10.545-24.633V220.89h35.178v353.65h277.965v35.178H139.316z"/>
    </g>
</svg>