<svg version="1.1" id="Слой_1" xmlns="http://www.w3.org/2000/svg" xmlns:xlink="http://www.w3.org/1999/xlink" x="0px" y="0px"
	 width="680.314px" height="680.314px" viewBox="0 0 680.314 680.314" enable-background="new 0 0 680.314 680.314"
	 xml:space="preserve">
    <g>
        <path fill="#434950" d="M339.64,536.329c65.282,0,124.186-22.393,166.621-58.592c41.556-35.434,67.237-84.189,67.237-137.792
            s-25.682-102.331-67.237-137.792c-42.435-36.198-101.339-58.592-166.621-58.592s-124.158,22.394-166.621,58.592
            c-41.527,35.461-67.238,84.189-67.238,137.792c0,23.726,4.933,46.318,13.947,67.097c9.467,21.854,23.499,41.951,41.159,59.527
            l8.816,8.73l-3.316,11.934l-19.021,68.371l76.563-36.936l8.334-4.025l8.589,3.346c15.307,6.037,31.38,10.658,48.019,13.775
            C305.001,534.741,321.98,536.329,339.64,536.329L339.64,536.329z M533.813,509.968c-49.89,42.547-118.545,68.881-194.173,68.881
            c-19.814,0-39.373-1.871-58.422-5.414c-16.356-3.033-32.06-7.285-47.027-12.613l-110.58,53.348l-42.18,20.352l12.529-45.098
            l28.346-101.906c-17.319-19.049-31.379-40.479-41.442-63.695c-11.395-26.248-17.603-54.51-17.603-83.876
            c0-66.585,31.408-126.68,82.205-170.022c49.89-42.548,118.573-68.882,194.173-68.882c75.628,0,144.284,26.334,194.173,68.882
            c50.797,43.342,82.205,103.437,82.205,170.022S584.61,466.626,533.813,509.968L533.813,509.968z"/>
    </g>
</svg>