<svg version="1.1" id="Слой_1" xmlns="http://www.w3.org/2000/svg" xmlns:xlink="http://www.w3.org/1999/xlink" x="0px" y="0px"
	 width="680.314px" height="680.314px" viewBox="0 0 680.314 680.314" enable-background="new 0 0 680.314 680.314"
	 xml:space="preserve">
<g>
	<path fill-rule="evenodd" clip-rule="evenodd" fill="#E8821D" d="M135.545,84.827c28.177,0,51.024,22.847,51.024,51.023
		s-22.847,51.023-51.024,51.023c-28.176,0-51.023-22.847-51.023-51.023S107.369,84.827,135.545,84.827L135.545,84.827z"/>
	<path fill-rule="evenodd" clip-rule="evenodd" fill="#E8821D" d="M339.64,84.827c28.176,0,51.024,22.847,51.024,51.023
		s-22.848,51.023-51.024,51.023s-51.023-22.847-51.023-51.023S311.464,84.827,339.64,84.827L339.64,84.827z"/>
	<path fill-rule="evenodd" clip-rule="evenodd" fill="#E8821D" d="M543.734,84.827c28.177,0,51.023,22.847,51.023,51.023
		s-22.847,51.023-51.023,51.023c-28.176,0-51.023-22.847-51.023-51.023S515.559,84.827,543.734,84.827L543.734,84.827z"/>
	<path fill-rule="evenodd" clip-rule="evenodd" fill="#E8821D" d="M135.545,288.921c28.177,0,51.024,22.847,51.024,51.023
		c0,28.177-22.847,51.023-51.024,51.023c-28.176,0-51.023-22.846-51.023-51.023C84.522,311.769,107.369,288.921,135.545,288.921
		L135.545,288.921z"/>
	<path fill-rule="evenodd" clip-rule="evenodd" fill="#E8821D" d="M339.64,288.921c28.176,0,51.024,22.847,51.024,51.023
		c0,28.177-22.848,51.023-51.024,51.023s-51.023-22.846-51.023-51.023C288.617,311.769,311.464,288.921,339.64,288.921
		L339.64,288.921z"/>
	<path fill-rule="evenodd" clip-rule="evenodd" fill="#E8821D" d="M543.734,288.921c28.177,0,51.023,22.847,51.023,51.023
		c0,28.177-22.847,51.023-51.023,51.023c-28.176,0-51.023-22.846-51.023-51.023C492.711,311.769,515.559,288.921,543.734,288.921
		L543.734,288.921z"/>
	<path fill-rule="evenodd" clip-rule="evenodd" fill="#E8821D" d="M135.545,493.017c28.177,0,51.024,22.846,51.024,51.023
		c0,28.176-22.847,51.023-51.024,51.023c-28.176,0-51.023-22.848-51.023-51.023C84.522,515.862,107.369,493.017,135.545,493.017
		L135.545,493.017z"/>
	<path fill-rule="evenodd" clip-rule="evenodd" fill="#E8821D" d="M339.64,493.017c28.176,0,51.024,22.846,51.024,51.023
		c0,28.176-22.848,51.023-51.024,51.023s-51.023-22.848-51.023-51.023C288.617,515.862,311.464,493.017,339.64,493.017
		L339.64,493.017z"/>
	<path fill-rule="evenodd" clip-rule="evenodd" fill="#E8821D" d="M543.734,493.017c28.177,0,51.023,22.846,51.023,51.023
		c0,28.176-22.847,51.023-51.023,51.023c-28.176,0-51.023-22.848-51.023-51.023C492.711,515.862,515.559,493.017,543.734,493.017
		L543.734,493.017z"/>
</g>
</svg>