<svg xmlns="http://www.w3.org/2000/svg" xml:space="preserve" width="31.4693mm" height="5.8225mm" version="1.1" style="shape-rendering:geometricPrecision; text-rendering:geometricPrecision; image-rendering:optimizeQuality; fill-rule:evenodd; clip-rule:evenodd"
    viewBox="0 0 239.92 44.39"
    xmlns:xlink="http://www.w3.org/1999/xlink"
    xmlns:xodm="http://www.corel.com/coreldraw/odm/2003">
    <defs>
    <style type="text/css">
    <![CDATA[
        .fil1 {fill:#E8821D}
        .fil2 {fill:#E6811E}
        .fil0 {fill:#242321}
    ]]>
    </style>
    </defs>
    <g id="Слой_x0020_1">
    <metadata id="CorelCorpID_0Corel-Layer"/>
    <g id="_1577948069472">
    <path class="fil0" d="M13.16 24.66l0 -14.1 9.7 0c3.92,0 6.76,0.51 8.53,1.54 1.76,1.04 2.65,2.73 2.65,5.09 0,2.65 -0.88,4.57 -2.65,5.73 -1.76,1.17 -4.61,1.73 -8.53,1.73l-9.7 0zm14.77 5.68c8.84,-1.12 13.26,-5.5 13.26,-13.15 0,-8.47 -6.11,-12.7 -18.32,-12.7l-16.85 0 0 26.03 -6.03 0 0 5.59 6.03 0 0 7.41 7.13 0 0 -12.91 4.89 0 16.29 12.92 10 0 -16.41 -13.2z"/>
    <path class="fil0" d="M53.67 25.4l20.68 0c-0.15,-2.32 -1.01,-3.99 -2.59,-5 -1.57,-1.01 -4.06,-1.52 -7.47,-1.52 -3.41,0 -5.93,0.5 -7.55,1.49 -1.63,0.99 -2.65,2.67 -3.06,5.02zm27.75 3.48l0 1.86 -27.86 0c0.26,3 1.22,5.08 2.87,6.26 1.65,1.18 4.38,1.77 8.2,1.76 5.88,0 9.12,-1.37 9.72,-4.12l6.57 0c-0.34,3.18 -1.9,5.6 -4.7,7.25 -2.8,1.65 -6.7,2.47 -11.69,2.47 -6.08,0 -10.54,-1.27 -13.37,-3.82 -2.84,-2.55 -4.26,-6.52 -4.27,-11.91 0,-5.32 1.39,-9.22 4.18,-11.72 2.79,-2.49 7.2,-3.74 13.23,-3.73 6.03,0 10.39,1.22 13.09,3.65 2.7,2.43 4.04,6.45 4.03,12.04z"/>
    <path class="fil0" d="M107.78 14.05l0 5.73 -10.67 0 0 13.54c0,1.84 0.43,3.18 1.29,4.04 0.86,0.83 2.24,1.24 4.16,1.24 1.81,0.02 3.6,-0.39 5.22,-1.18l0 5.68c-1.61,0.86 -3.58,1.29 -5.9,1.29 -3.97,0 -6.92,-0.9 -8.85,-2.7 -1.93,-1.8 -2.89,-4.59 -2.89,-8.37l0 -13.53 -5.05 0 0 -5.75 5.05 0 0 -7.58 6.97 0 0 7.59 10.67 -0.01z"/>
    <path class="fil1" d="M131.54 44.38c-6.18,0 -10.75,-1.1 -13.71,-3.31 -2.96,-2.21 -4.53,-5.67 -4.7,-10.39l6.74 0c0.15,2.77 1.13,4.75 2.94,5.93 1.81,1.18 4.78,1.77 8.9,1.76 7,0 10.51,-2 10.51,-6.01 0,-1.53 -0.49,-2.73 -1.47,-3.6 -0.98,-0.86 -2.54,-1.44 -4.66,-1.74l-10.95 -1.68c-3.75,-0.56 -6.48,-1.66 -8.2,-3.29 -1.72,-1.63 -2.59,-3.94 -2.59,-6.94 0,-3.75 1.42,-6.59 4.27,-8.53 2.85,-1.94 7,-2.91 12.47,-2.92 5.58,0 9.76,1 12.53,3.01 2.77,2 4.36,5.17 4.78,9.5l-6.85 -0c-0.26,-2.35 -1.21,-4.03 -2.84,-5.02 -1.63,-1 -4.19,-1.49 -7.67,-1.49 -6.52,0 -9.77,1.76 -9.77,5.29 0,2.35 2,3.85 6.01,4.5l10.73 1.63c3.82,0.59 6.64,1.8 8.46,3.62 1.82,1.83 2.73,4.33 2.72,7.5 0,3.93 -1.51,6.95 -4.52,9.05 -3.02,2.1 -7.39,3.14 -13.12,3.13z"/>
    <path class="fil1" d="M172.78 38.65c4.01,0 6.82,-0.73 8.43,-2.19 1.65,-1.54 2.47,-4.1 2.47,-7.7 0,-3.56 -0.81,-6.08 -2.44,-7.55 -1.63,-1.48 -4.45,-2.22 -8.46,-2.22 -4.04,0 -6.9,0.74 -8.57,2.22 -1.67,1.48 -2.5,4 -2.5,7.55 0,3.6 0.82,6.16 2.47,7.7 1.68,1.46 4.55,2.19 8.6,2.19zm0 5.73c-6.29,0 -10.87,-1.25 -13.74,-3.76 -2.87,-2.51 -4.3,-6.46 -4.3,-11.86 0,-5.39 1.44,-9.33 4.33,-11.83 2.89,-2.49 7.46,-3.74 13.71,-3.73 6.14,0 10.66,1.26 13.54,3.79 2.88,2.53 4.33,6.45 4.33,11.76 0,5.39 -1.44,9.35 -4.33,11.86 -2.88,2.51 -7.4,3.77 -13.54,3.77z"/>
    <path class="fil2" d="M212.5 5.73c-4.08,0 -6.12,1.89 -6.13,5.68l0 2.65 6.8 0 0 5.72 -6.8 0 0 23.77 -6.97 0 0 -23.77 -5.11 0 0 -5.73 5.11 0 0 -2.65c0,-3.86 0.98,-6.73 2.94,-8.6 1.96,-1.87 5.06,-2.81 9.31,-2.8l0.11 -0c1.13,0 2.26,0.21 3.32,0.62l0 5.51c-0.83,-0.29 -1.71,-0.43 -2.58,-0.39z"/>
    <path class="fil1" d="M239.92 14.05l0 5.73 -10.68 0 0 13.54c0,1.84 0.43,3.18 1.29,4.04 0.86,0.83 2.25,1.24 4.16,1.24 1.81,0.02 3.6,-0.39 5.23,-1.18l0 5.68c-1.61,0.86 -3.58,1.29 -5.9,1.29 -3.97,0 -6.92,-0.9 -8.85,-2.7 -1.93,-1.8 -2.89,-4.59 -2.89,-8.37l0 -13.53 -5.06 0 0 -5.75 5.06 0 0 -7.58 6.97 0 0 7.59 10.68 -0.01z"/>
    </g>
    </g>
</svg>