<svg version="1.1" id="Слой_1" xmlns="http://www.w3.org/2000/svg" xmlns:xlink="http://www.w3.org/1999/xlink" x="0px" y="0px"
	 width="680.314px" height="680.314px" viewBox="0 0 680.314 680.314" enable-background="new 0 0 680.314 680.314"
	 xml:space="preserve">
<g>
	<path fill="#434950" d="M453.026,233.646c17.631,0,33.562-7.144,45.099-18.681c11.537-11.537,18.681-27.496,18.681-45.099
		s-7.144-33.562-18.681-45.099s-27.468-18.68-45.099-18.68c-17.604,0-33.563,7.143-45.1,18.68s-18.681,27.496-18.681,45.099
		s7.144,33.563,18.681,45.099C419.464,226.502,435.423,233.646,453.026,233.646L453.026,233.646z M528.201,245.041
		c-19.248,19.219-45.809,31.125-75.175,31.125c-29.339,0-55.928-11.905-75.146-31.125c-19.248-19.247-31.153-45.808-31.153-75.175
		c0-29.338,11.905-55.927,31.153-75.146c19.219-19.247,45.808-31.153,75.146-31.153c29.366,0,55.927,11.906,75.175,31.153
		c19.219,19.219,31.124,45.808,31.124,75.146C559.325,199.233,547.42,225.794,528.201,245.041L528.201,245.041z"/>
	<path fill="#434950" d="M367.986,191.126h-56.693v-42.52h56.693V191.126z M474.286,254.906v56.693h-42.52v-56.693H474.286z
		 M538.065,148.606h56.692v42.52h-56.692V148.606z M431.767,84.827V28.134h42.52v56.693H431.767z"/>
	<path fill="#434950" d="M407.927,245.041l-40.082,40.082l-30.075-30.076l40.11-40.082L407.927,245.041z M528.201,214.965
		l40.081,40.082l-30.075,30.076l-40.082-40.082L528.201,214.965z M498.125,94.72l40.082-40.11l30.075,30.075l-40.081,40.082
		L498.125,94.72z M377.88,124.767l-40.11-40.082l30.075-30.075l40.082,40.11L377.88,124.767z"/>
	<path fill-rule="evenodd" clip-rule="evenodd" fill="#434950" d="M183.734,595.063h311.812c23.386,0,42.52-19.135,42.52-42.52
		V308.622c-13.067,8.022-27.354,14.258-42.52,18.34v225.582H183.734V127.347H295.93c4.082-15.166,10.318-29.452,18.34-42.52H183.734
		c-23.386,0-42.52,19.134-42.52,42.52v425.197C141.215,575.929,160.349,595.063,183.734,595.063L183.734,595.063z M226.254,467.532
		h226.772v42.52H226.254V467.532z M226.254,382.493h226.772v42.52H226.254V382.493z"/>
</g>
</svg>