<svg version="1.1" id="Слой_1" xmlns="http://www.w3.org/2000/svg" xmlns:xlink="http://www.w3.org/1999/xlink" x="0px" y="0px"
	 width="680.314px" height="680.314px" viewBox="0 0 680.314 680.314" enable-background="new 0 0 680.314 680.314"
	 xml:space="preserve">
    <g>
        <path fill-rule="evenodd" clip-rule="evenodd" fill="#434951" d="M274.443,623.409l-14.173-89.291
            c-8.958-3.287-18.425-7.795-28.346-13.465c-9.921-5.668-18.652-11.564-26.221-17.717l-83.622,38.268L56.176,424.985l76.535-55.984
            c-0.936-4.252-1.531-9.1-1.757-14.514c-0.255-5.443-0.369-10.291-0.369-14.542c0-4.252,0.113-9.099,0.369-14.513
            c0.227-5.442,0.822-10.29,1.757-14.542l-76.535-55.984l65.905-116.221l83.622,38.268c7.568-6.151,16.299-12.047,26.221-17.717
            c9.921-5.669,19.389-9.921,28.346-12.756l14.173-90h130.394l14.173,89.292c8.986,3.316,18.567,7.682,28.716,13.124
            c10.147,5.415,18.765,11.452,25.852,18.057l83.622-38.268l65.905,116.221l-76.535,54.567c0.936,4.734,1.53,9.78,1.786,15.222
            c0.255,5.442,0.34,10.517,0.34,15.25c0,4.707-0.113,9.695-0.34,14.882c-0.228,5.188-0.851,10.148-1.786,14.881l76.535,55.277
            l-65.905,116.219l-83.594-38.268c-7.568,6.152-16.186,12.162-25.88,18.057c-9.695,5.926-19.248,10.291-28.716,13.125
            l-14.173,89.291H274.443z M339.64,432.071c25.512,0,47.253-8.957,65.197-26.93c17.972-17.943,26.93-39.686,26.93-65.197
            c0-25.512-8.958-47.225-26.93-65.197c-17.943-17.943-39.685-26.929-65.197-26.929c-25.512,0-47.225,8.986-65.197,26.929
            c-17.943,17.972-26.929,39.685-26.929,65.197c0,25.511,8.986,47.253,26.929,65.197C292.415,423.114,314.128,432.071,339.64,432.071
            L339.64,432.071z M339.64,389.552c-13.691,0-25.398-4.848-35.064-14.514c-9.695-9.695-14.542-21.373-14.542-35.093
            c0-13.691,4.847-25.398,14.542-35.064c9.666-9.694,21.373-14.542,35.064-14.542c13.719,0,25.399,4.847,35.093,14.542
            c9.666,9.666,14.513,21.374,14.513,35.064c0,13.72-4.847,25.398-14.513,35.093C365.039,384.704,353.359,389.552,339.64,389.552
            L339.64,389.552z M308.459,580.89h62.362l9.921-79.369c15.591-3.799,30.359-9.695,44.306-17.717
            c13.918-8.021,26.561-17.717,37.899-29.055l75.118,32.598l28.347-51.023l-66.614-48.898c1.899-8.021,3.43-15.959,4.62-23.754
            s1.758-15.703,1.758-23.726c0-8.022-0.454-15.931-1.418-23.726c-0.935-7.795-2.607-15.732-4.96-23.754l66.614-48.898
            l-28.347-51.023l-75.118,32.599c-10.856-12.303-23.159-22.564-36.879-30.841c-13.691-8.277-28.8-13.549-45.326-15.931L370.821,99
            h-62.362l-9.921,79.37c-16.044,3.317-31.067,8.986-44.986,17.008c-13.946,8.05-26.333,17.971-37.219,29.764l-75.118-32.599
            l-28.346,51.023l66.614,48.898c-1.899,8.022-3.43,15.959-4.62,23.754c-1.162,7.795-1.758,15.704-1.758,23.726
            c0,8.05,0.596,15.958,1.758,23.755c1.19,7.795,2.721,15.703,4.62,23.725l-66.614,48.898l28.346,51.053l75.118-32.627
            c11.339,11.365,23.981,21.033,37.928,29.082c13.918,8.023,28.687,13.918,44.277,17.689L308.459,580.89z"/>
    </g>
</svg>