<svg version="1.1" id="Слой_1" xmlns="http://www.w3.org/2000/svg" xmlns:xlink="http://www.w3.org/1999/xlink" x="0px" y="0px"
	 width="680.314px" height="680.314px" viewBox="0 0 680.314 680.314" enable-background="new 0 0 680.314 680.314"
	 xml:space="preserve">
<g>
	<path fill="#434950" d="M411.98,322.994c14.938-11.197,27.155-25.795,35.574-42.604c8.051-16.072,12.558-34.356,12.558-53.83
		c0-33.278-13.492-63.382-35.291-85.181c-21.799-21.799-51.902-35.292-85.181-35.292s-63.383,13.493-85.181,35.292
		c-21.798,21.798-35.292,51.902-35.292,85.181c0,19.474,4.536,37.758,12.558,53.83c8.419,16.81,20.636,31.408,35.575,42.604
		l50.854,38.21h-63.553h-50.258c-27.071,0-51.704,11.113-69.59,28.971c-17.858,17.887-28.97,42.52-28.97,69.59v114.039h467.716
		V459.765c0-27.07-11.083-51.703-28.97-69.59c-17.887-17.857-42.52-28.971-69.591-28.971H424.68h-63.553L411.98,322.994z
		 M485.426,299.325c-3.373,6.718-7.2,13.209-11.424,19.36h0.936c38.807,0,74.098,15.874,99.666,41.443
		c25.541,25.539,41.415,60.832,41.415,99.637v135.299v21.26h-21.261H84.522h-21.26v-21.26V459.765
		c0-38.805,15.874-74.098,41.442-99.637c25.54-25.569,60.832-41.443,99.638-41.443h0.936c-4.224-6.151-8.05-12.643-11.423-19.36
		c-10.999-22.025-17.207-46.743-17.207-72.766c0-45.014,18.255-85.748,47.735-115.256c29.509-29.48,70.243-47.736,115.257-47.736
		s85.749,18.255,115.256,47.736c29.48,29.508,47.735,70.242,47.735,115.256C502.632,252.582,496.453,277.299,485.426,299.325
		L485.426,299.325z"/>
</g>
</svg>