<svg version="1.1" id="Слой_1" xmlns="http://www.w3.org/2000/svg" xmlns:xlink="http://www.w3.org/1999/xlink" x="0px" y="0px"
	 width="680.314px" height="680.314px" viewBox="0 0 680.314 680.314" enable-background="new 0 0 680.314 680.314"
	 xml:space="preserve">
<g>
	<polygon fill-rule="evenodd" clip-rule="evenodd" fill="#434951" points="564.286,84.827 594.758,115.299 490.585,219.473 
		580.585,219.473 580.585,261.992 417.593,261.992 417.593,99 460.112,99 460.112,189 	"/>
	<polygon fill-rule="evenodd" clip-rule="evenodd" fill="#434951" points="114.995,84.827 219.167,189 219.167,99 261.688,99 
		261.688,261.992 98.695,261.992 98.695,219.473 188.695,219.473 84.522,115.299 	"/>
	<polygon fill-rule="evenodd" clip-rule="evenodd" fill="#434951" points="580.585,417.897 580.585,460.417 490.585,460.417 
		594.758,564.591 564.286,595.063 460.112,490.89 460.112,580.89 417.593,580.89 417.593,417.897 	"/>
	<polygon fill-rule="evenodd" clip-rule="evenodd" fill="#434951" points="262.396,417.218 262.396,580.21 219.876,580.21 
		219.876,490.21 114.995,595.063 84.522,564.618 189.404,459.737 99.404,459.737 99.404,417.218 	"/>
</g>
</svg>