<svg version="1.1" id="Слой_1" xmlns="http://www.w3.org/2000/svg" xmlns:xlink="http://www.w3.org/1999/xlink" x="0px" y="0px"
	 width="680.314px" height="680.314px" viewBox="0 0 680.314 680.314" enable-background="new 0 0 680.314 680.314"
	 xml:space="preserve">
    <g>
        <path fill-rule="evenodd" clip-rule="evenodd" fill="#434950" d="M183.734,595.063h311.812c23.386,0,42.52-19.135,42.52-42.52
            V127.347c0-23.386-19.134-42.52-42.52-42.52H183.734c-23.386,0-42.52,19.134-42.52,42.52v425.197
            C141.215,575.929,160.349,595.063,183.734,595.063L183.734,595.063z M226.254,254.906h226.772v42.52H226.254V254.906z
            M226.254,169.866h226.772v42.52H226.254V169.866z M183.734,127.347h311.812v425.197H183.734V127.347z"/>
        <polygon fill="#434950" points="297.971,438.308 325.467,465.804 409.656,381.614 439.703,411.661 340.49,510.874 325.467,525.927 
            310.443,510.874 267.924,468.354 	"/>
    </g>
</svg>